<?xml version="1.0" encoding="UTF-8"?>
<svg version="1.1" xmlns="http://www.w3.org/2000/svg" width="512" height="512">
<path d="M0 0 C0.89976563 -0.020625 1.79953125 -0.04125 2.7265625 -0.0625 C17.49750957 -0.1473905 29.71587393 6.07654695 40.10546875 16.296875 C51.16569139 27.75116733 54.50016859 41.05319727 54.34790039 56.57495117 C53.87727612 70.67199738 47.95147308 83.314654 37.875 93.25 C36.885 93.91 35.895 94.57 34.875 95.25 C34.875 95.91 34.875 96.57 34.875 97.25 C36.18159218 98.54903425 36.18159218 98.54903425 37.97924805 99.94580078 C44.14785079 105.19628944 49.5942975 111.14202318 55.17783546 116.99728012 C59.41520142 121.42407 63.69711148 125.80789033 67.97246265 130.19795036 C71.70877263 134.03939334 75.42694057 137.89560886 79.11010742 141.78808594 C82.69750453 145.57753395 86.32844892 149.32005367 89.99201012 153.03586197 C91.36884459 154.44814095 92.72973661 155.87616699 94.07291603 157.32049179 C100.52450331 164.24029825 105.68918862 169.729337 115.49873638 170.41082954 C117.93978555 170.44055765 120.34818844 170.35636961 122.78569031 170.23294067 C126.64021705 170.07782233 128.80235063 170.76440729 131.875 173.25 C135.03981635 177.34954288 137.14104158 181.75193135 139.109375 186.51171875 C139.39226379 187.18419144 139.67515259 187.85666412 139.96661377 188.54951477 C140.55779903 189.9592162 141.1458767 191.37022457 141.73095703 192.7824707 C142.62826013 194.94535831 143.53801777 197.10270172 144.44921875 199.25976562 C145.02418337 200.63510509 145.59842793 202.01074585 146.171875 203.38671875 C146.44368591 204.03049973 146.71549683 204.6742807 146.99554443 205.33757019 C148.15489769 208.15464946 148.875 210.16924685 148.875 213.25 C149.46942512 213.24848112 150.06385024 213.24696224 150.67628825 213.24539733 C185.89883809 213.15590468 221.12136838 213.08726373 256.34400824 213.04573868 C260.57227522 213.04073579 264.80054196 213.03555851 269.02880859 213.03027344 C269.8705881 213.0292242 270.7123676 213.02817495 271.57965557 213.02709392 C285.21354227 213.00968388 298.84736158 212.9781429 312.48120828 212.94138882 C326.46852654 212.90399605 340.45580948 212.88176767 354.44317567 212.87364602 C363.07567199 212.86815478 371.70797783 212.85080497 380.34041552 212.81833413 C386.25825585 212.79720677 392.17599755 212.79079591 398.09387286 212.79599449 C401.50934629 212.79855907 404.92448662 212.7946 408.33990097 212.7731781 C412.04275575 212.75333554 415.74478936 212.75804095 419.44766235 212.76898193 C421.06731791 212.75150488 421.06731791 212.75150488 422.71969378 212.73367476 C428.73345918 212.78184587 432.31853204 213.18512523 436.875 217.25 C439.07368546 221.64737091 438.68238919 226.57135664 437.29473877 231.17510986 C435.27035142 236.82614368 432.83092515 242.3107098 430.4375 247.8125 C429.66233879 249.63095156 428.88909843 251.450223 428.11767578 253.27026367 C426.51339957 257.05121441 424.90092844 260.82851022 423.28271484 264.60351562 C419.88639725 272.54488776 416.59630844 280.52983523 413.30282593 288.51425171 C412.25202304 291.05760347 411.19680565 293.59907441 410.13989258 296.13989258 C406.96519585 303.77267212 403.80248082 311.40938204 400.69631958 319.07035828 C399.33654004 322.42086028 397.96754437 325.76755652 396.59747314 329.11386108 C395.95678132 330.68591446 395.32055698 332.2597971 394.68914795 333.83560181 C393.81972588 336.00459063 392.93505495 338.16676329 392.046875 340.328125 C391.3058252 342.15972168 391.3058252 342.15972168 390.54980469 344.02832031 C388.67198181 347.64052887 387.03716218 349.67974287 383.875 352.25 C381.11048462 352.73318302 378.96767605 352.90785805 376.21244812 352.85127258 C375.44863526 352.85554471 374.68482239 352.85981683 373.89786369 352.86421841 C371.34236103 352.8724444 368.78850531 352.84497182 366.2331543 352.81762695 C364.39992817 352.81621639 362.56669922 352.81700862 360.73347473 352.81983948 C355.75847549 352.82127471 350.78407837 352.79186738 345.80921912 352.75696969 C340.60956352 352.72572421 335.40989429 352.72277687 330.2101593 352.71684265 C320.3645537 352.70129892 310.51922552 352.66026316 300.67374212 352.6100952 C289.46468879 352.55421833 278.25562224 352.52671938 267.04646432 352.50161803 C243.98915571 352.44934788 220.9320934 352.36139516 197.875 352.25 C197.483125 353.4875 197.09125 354.725 196.6875 356 C194.73618823 361.88207922 192.31253821 367.55598782 189.875 373.25 C190.80837031 373.24631283 191.74174063 373.24262566 192.70339489 373.23882675 C215.40405817 373.15006723 238.10469898 373.0843154 260.80549908 373.04275131 C271.78339997 373.02211748 282.7611863 372.99398111 293.73901367 372.94824219 C303.30619644 372.90839966 312.87329626 372.88257317 322.44055969 372.87364602 C327.50737483 372.86842691 332.57395261 372.85614294 337.64069176 372.82707977 C342.40868264 372.79995155 347.17633815 372.79154978 351.94439888 372.79756927 C353.695167 372.79646788 355.44594621 372.78849853 357.19664764 372.7731781 C359.58627926 372.75329027 361.97464293 372.75805568 364.36430359 372.76898193 C365.05789197 372.75733057 365.75148035 372.7456792 366.46608657 372.73367476 C371.2042233 372.79227624 373.54078137 373.92497983 376.875 377.25 C378.25623963 379.21722008 379.58988126 381.21868328 380.875 383.25 C381.535 384.013125 382.195 384.77625 382.875 385.5625 C388.32457489 392.88536626 390.35608552 400.68881234 389.69140625 409.75390625 C388.34551065 418.62016697 383.88040075 426.4534023 376.8046875 432.00390625 C369.02276467 437.02907504 361.08417552 439.16704272 351.875 438.25 C341.29597502 435.68227549 333.99567339 430.68187629 328.1015625 421.59375 C325.27745648 416.19736908 324.62105312 411.63332885 324.6875 405.5625 C324.69394531 404.25925781 324.70039063 402.95601563 324.70703125 401.61328125 C324.875 398.25 324.875 398.25 325.875 395.25 C295.845 395.58 265.815 395.91 234.875 396.25 C235.205 397.9 235.535 399.55 235.875 401.25 C236.78494961 410.68197773 234.56713709 419.07072134 228.54296875 426.43359375 C222.15508325 433.38995618 215.53796932 437.62289073 205.91796875 438.41015625 C196.02484611 438.80865331 187.42138527 435.63985113 179.875 429.25 C172.16001207 421.26549284 170.5164347 413.00992961 170.671875 402.16796875 C170.84298369 399.70992663 171.16945017 397.59993614 171.875 395.25 C171.153125 395.20875 170.43125 395.1675 169.6875 395.125 C166.56049602 394.15215432 164.99403144 392.69928646 162.79296875 390.30859375 C160.71685908 385.65280738 161.51531181 380.65641295 163.26782227 376.04052734 C163.89554128 374.54991727 164.53739489 373.06520039 165.19140625 371.5859375 C165.5267186 370.79023346 165.86203094 369.99452942 166.20750427 369.17471313 C167.63093238 365.79764263 169.08722376 362.43505737 170.54174805 359.07128906 C171.60379617 356.6019855 172.64796993 354.12565002 173.69140625 351.6484375 C174.02467422 350.89517181 174.3579422 350.14190613 174.7013092 349.36581421 C177.23960026 343.32829395 176.80467086 339.54407942 174.47070312 333.45581055 C173.87239392 332.01339633 173.26713684 330.57385129 172.65625 329.13671875 C172.16209595 327.95255119 172.16209595 327.95255119 171.65795898 326.74446106 C170.5694731 324.13965528 169.47217758 321.53865521 168.375 318.9375 C167.60414261 317.09663672 166.83397184 315.25548578 166.06445312 313.4140625 C164.4649008 309.58790855 162.86239749 305.76301082 161.2578125 301.93896484 C157.95421335 294.05964681 154.68659134 286.16547523 151.41891479 278.27120972 C149.66781083 274.04203283 147.91377502 269.81407208 146.16015625 265.5859375 C143.59136498 259.39119754 141.02382341 253.19594129 138.45748901 247.00018311 C136.94052295 243.33797955 135.42315582 239.67594223 133.90576172 236.01391602 C133.19381191 234.295411 132.48205095 232.57682773 131.77050781 230.8581543 C126.84878166 218.97031093 121.87959174 207.10319902 116.875 195.25 C116.62254517 196.37801025 116.62254517 196.37801025 116.36499023 197.52880859 C114.14468905 207.12749057 110.20126858 214.44436949 101.9140625 220.03125 C93.26098678 225.2032033 82.98854466 225.89636623 73.19140625 223.62890625 C60.64477361 218.59683434 50.76112685 206.40181786 41.4609375 197.03125 C39.99593347 195.56250868 38.53048196 194.09421358 37.06460571 192.62634277 C33.23636177 188.79051873 29.41416627 184.9487239 25.59326172 181.10559082 C21.68174335 177.17349194 17.76444795 173.24715736 13.84765625 169.3203125 C6.18448647 161.6357922 -1.47229651 153.94494234 -9.125 146.25 C-12.5793352 151.43150281 -12.50761046 157.1349744 -11.5625 163.1875 C-8.71908116 174.55064684 -1.02485869 181.73597601 7.25074387 189.43735886 C9.86157066 191.87742956 12.43325665 194.35722262 15.00837135 196.83486366 C19.78235605 201.42727497 24.57011135 206.0025749 29.42431641 210.51025391 C32.82129489 213.66767176 36.16554351 216.87355549 39.48207474 220.11528397 C40.74237166 221.32907893 42.02049092 222.52468242 43.31702805 223.69968796 C49.87959503 229.66181587 54.45041383 234.56224541 54.91208839 243.73955727 C54.89293387 250.53511003 53.97279049 256.13077282 51.69657898 262.56077576 C49.41274166 269.66186679 50.12153225 275.01460134 51.69995117 282.19702148 C51.94160004 283.41823196 52.1832489 284.63944244 52.43222046 285.8976593 C53.09370413 289.20852635 53.78253773 292.51128732 54.48471999 295.81359744 C55.21606603 299.28675633 55.91070855 302.76724953 56.60945129 306.24708557 C57.93596078 312.82515429 59.29440719 319.39618364 60.66494685 325.96520334 C62.22013067 333.42663562 63.74046265 340.89502761 65.25741994 348.36431015 C67.10816491 357.47647023 68.96338366 366.58764379 70.84745789 375.69297791 C71.11040146 376.96423523 71.37334503 378.23549255 71.64425659 379.54527283 C72.13496241 381.91432712 72.6266793 384.28317231 73.11961365 386.65176392 C73.44587738 388.22623039 73.44587738 388.22623039 73.7787323 389.83250427 C73.96736438 390.7392562 74.15599646 391.64600813 74.35034466 392.58023739 C76.41275775 403.0750383 77.21436603 412.84677855 71.5859375 422.44921875 C66.02973164 430.24870559 59.72087392 435.26829965 50.5 437.9375 C39.82520595 439.20830882 30.74798339 437.31326194 21.9140625 430.9765625 C12.71935692 423.1910072 10.74591221 412.53497006 8.53076172 401.1940918 C8.31735138 400.12630997 8.10394104 399.05852814 7.88406372 397.95838928 C7.18550729 394.45638829 6.49508791 390.95283591 5.8046875 387.44921875 C5.31865881 385.00533107 4.83208848 382.56155106 4.34500122 380.11787415 C3.06792971 373.70402767 1.79762916 367.2888593 0.52893066 360.87335205 C-1.01559037 353.06583547 -2.56868994 345.26001888 -4.12075615 337.45399952 C-5.32754612 331.38429926 -6.53301263 325.31434711 -7.73440552 319.24357605 C-7.95519775 318.12966492 -8.17598999 317.01575378 -8.4034729 315.86808777 C-8.8156896 313.78836422 -9.22716412 311.70849336 -9.63775635 309.62844849 C-9.81990692 308.71039932 -10.0020575 307.79235016 -10.18972778 306.84648132 C-10.3471451 306.05068004 -10.50456242 305.25487875 -10.66674995 304.43496227 C-10.81797247 303.71392472 -10.96919498 302.99288717 -11.125 302.25 C-11.33484685 301.15042575 -11.33484685 301.15042575 -11.54893303 300.02863789 C-11.73903513 299.44168738 -11.92913723 298.85473688 -12.125 298.25 C-14.32868357 297.09524373 -14.32868357 297.09524373 -17.0625 296.375 C-30.92153328 291.71951078 -41.05528156 283.21883495 -47.625 270.125 C-52.25096377 260.8159618 -53.4239577 252.49246384 -53.41552734 242.1652832 C-53.42224457 240.97555405 -53.42896179 239.78582489 -53.43588257 238.56004333 C-53.45156117 235.31590572 -53.45823392 232.07192227 -53.45951414 228.8277514 C-53.46094224 226.79402797 -53.46522431 224.76033085 -53.47050858 222.726614 C-53.48897942 215.61175221 -53.49718322 208.49696504 -53.49560547 201.38208008 C-53.49440606 194.78257826 -53.51547624 188.18340453 -53.5470928 181.58398563 C-53.57337634 175.89193307 -53.58396769 170.19998685 -53.58269465 164.50787419 C-53.58218838 161.11988617 -53.58768258 157.73218986 -53.60905075 154.34426308 C-53.62879263 150.55646708 -53.62283923 146.76950072 -53.61083984 142.98168945 C-53.62207886 141.88150482 -53.63331787 140.78132019 -53.64489746 139.64779663 C-53.52938147 125.19394548 -48.4981503 111.37500289 -38.25 101.0625 C-36.88729129 99.77849559 -35.51669644 98.5025268 -34.125 97.25 C-35.62609572 93.7288127 -37.69391345 91.51638491 -40.375 88.8125 C-49.227732 79.161454 -53.54195295 66.91801776 -53.4375 53.9375 C-53.43186035 53.1947583 -53.4262207 52.4520166 -53.42041016 51.68676758 C-53.11018703 37.53782872 -47.38661825 24.7240783 -37.609375 14.50390625 C-26.75242379 4.65412504 -14.40816349 0.08049253 0 0 Z M162.875 246.25 C165.515 252.85 168.155 259.45 170.875 266.25 C245.785 266.25 320.695 266.25 397.875 266.25 C403.26816727 256.53133761 403.26816727 256.53133761 405.875 246.25 C325.685 246.25 245.495 246.25 162.875 246.25 Z M184.875 299.25 C188.09663116 310.5929515 188.09663116 310.5929515 193.875 320.25 C196.22787293 320.34763101 198.55134686 320.37997445 200.90467834 320.37025452 C202.02076978 320.37153615 202.02076978 320.37153615 203.15940851 320.37284368 C205.6714818 320.37450071 208.18348942 320.3689735 210.69555664 320.36352539 C212.48878477 320.36324354 214.28201302 320.36340121 216.07524109 320.3639679 C220.95933365 320.36425596 225.84340187 320.35835786 230.72748876 320.35139394 C235.8257658 320.34516181 240.92404334 320.34455671 246.02232361 320.34336853 C255.68377159 320.3402548 265.34520832 320.33204084 275.00665134 320.32201904 C286.00283623 320.31085921 296.99902163 320.30534778 307.99521077 320.30032361 C330.62181343 320.28985826 353.24840608 320.27225801 375.875 320.25 C377.2111044 316.93861092 378.543418 313.62570994 379.875 310.3125 C380.44734375 308.89420898 380.44734375 308.89420898 381.03125 307.44726562 C381.57265625 306.09858398 381.57265625 306.09858398 382.125 304.72265625 C382.46015625 303.89000244 382.7953125 303.05734863 383.140625 302.19946289 C383.93375383 300.4412324 383.93375383 300.4412324 383.875 299.25 C318.205 299.25 252.535 299.25 184.875 299.25 Z " fill="#000000" transform="translate(74.125,31.75)"/>
<path d="M0 0 C0.52207031 0.35191406 1.04414063 0.70382812 1.58203125 1.06640625 C2.31808594 1.56011719 3.05414062 2.05382812 3.8125 2.5625 C4.62589844 3.11808594 5.43929688 3.67367188 6.27734375 4.24609375 C8.9863515 6.04972061 8.9863515 6.04972061 11.94140625 7.53515625 C12.90949219 8.05980469 13.87757812 8.58445312 14.875 9.125 C15.77992187 9.58132813 16.68484375 10.03765625 17.6171875 10.5078125 C24.79252383 18.01250853 25.20669812 35.54118936 27.23046875 45.6484375 C27.62966306 47.63475167 28.02894126 49.62104899 28.42829895 51.60733032 C29.2598234 55.74709121 30.08900179 59.88731413 30.91674805 64.02783203 C31.9767626 69.32821127 33.04474461 74.6269512 34.11471081 79.92532921 C34.93964076 84.01663028 35.75932708 88.10896891 36.57753944 92.20161819 C36.96919866 94.15638048 37.36272332 96.11076998 37.75816917 98.06476974 C38.30935831 100.79130087 38.85320773 103.51919918 39.39526367 106.24755859 C39.55886383 107.04870087 39.72246399 107.84984314 39.89102173 108.67526245 C41.9452377 119.12204431 41.9452377 119.12204431 39.8203125 123.34375 C33.89511759 130.8799426 26.6143041 136.28315998 17 138 C7.23505136 138.91183731 -1.50221055 137.00362513 -9.18359375 130.734375 C-17.0633961 123.21043469 -20.61150479 114.81358882 -21 104 C-20.76774278 100.7653902 -20.19872604 97.64091173 -19.57421875 94.4609375 C-19.39726974 93.50440277 -19.22032074 92.54786804 -19.03800964 91.56234741 C-18.37740018 88.03773958 -17.69013785 84.51894588 -17 81 C-16.70929075 79.50545111 -16.41879441 78.01086079 -16.128479 76.51623535 C-14.09225929 66.05066228 -12.01334393 55.59386208 -9.91723633 45.14013672 C-8.98458008 40.48853821 -8.05816874 35.83571909 -7.13330555 31.18256569 C-6.4162666 27.57911559 -5.69568742 23.97638056 -4.97403526 20.37385178 C-4.63035599 18.65560881 -4.28787171 16.93712638 -3.94660378 15.21840286 C-3.47433174 12.8422786 -2.99722871 10.46717603 -2.51879883 8.09228516 C-2.37906647 7.38395538 -2.23933411 6.67562561 -2.09536743 5.9458313 C-1.11422776 1.11422776 -1.11422776 1.11422776 0 0 Z " fill="#000000" transform="translate(25,332)"/>
</svg>
