<svg width="46" height="46" viewBox="0 0 46 46" fill="none" xmlns="http://www.w3.org/2000/svg">
<circle cx="23" cy="23" r="18" fill="#FDC300"/>
<circle cx="23" cy="23" r="23" fill="#FDC300"/>
<circle cx="23.4999" cy="23.5" r="11.3478" fill="#FDC300"/>
<circle cx="23.5" cy="23.5" r="14.5" fill="white"/>
<path d="M27.8443 18.1678C28.0622 17.9462 28.3522 17.8237 28.653 17.8261C28.9538 17.8286 29.242 17.9558 29.4567 18.1808C29.6714 18.4059 29.7959 18.7113 29.8038 19.0326C29.8118 19.3538 29.7026 19.6658 29.4993 19.9027L23.3279 28.1474C23.2218 28.2695 23.0937 28.3675 22.9513 28.4355C22.8089 28.5036 22.6552 28.5402 22.4992 28.5433C22.3433 28.5464 22.1884 28.5158 22.0437 28.4535C21.8991 28.3912 21.7677 28.2983 21.6574 28.1805L17.5648 23.8086C17.4508 23.6952 17.3594 23.5584 17.296 23.4064C17.2326 23.2543 17.1985 23.0903 17.1957 22.9239C17.193 22.7575 17.2216 22.5922 17.28 22.4379C17.3383 22.2836 17.4252 22.1434 17.5353 22.0258C17.6455 21.9081 17.7767 21.8153 17.9211 21.753C18.0656 21.6907 18.2203 21.6601 18.3761 21.663C18.5318 21.6659 18.6854 21.7024 18.8277 21.7701C18.97 21.8378 19.0981 21.9355 19.2043 22.0572L22.4432 25.5154L27.8149 18.2042C27.8246 18.1914 27.8349 18.1793 27.8459 18.1678H27.8443Z" fill="#FDC300"/>
</svg>
