<svg width="38" height="31" viewBox="0 0 38 31" fill="none" xmlns="http://www.w3.org/2000/svg">
<path fill-rule="evenodd" clip-rule="evenodd" d="M34.5841 3.7876C35.1227 4.3262 35.4258 5.05716 35.4259 5.81885V8.69152H30.6173C30.0996 8.69152 29.6735 9.08486 29.6222 9.58898L29.6173 9.69152V21.3087C29.6173 21.861 30.065 22.3087 30.6173 22.3087H35.4259V25.1812C35.4259 25.9429 35.1228 26.6738 34.5841 27.2124C34.0456 27.7508 33.3153 28.0531 32.5538 28.0532H20.0001V22.2349C21.4359 22.0217 22.7758 21.3533 23.8146 20.3146C25.0914 19.0377 25.8087 17.3058 25.8087 15.5001C25.8087 13.6944 25.0914 11.9625 23.8146 10.6857C22.7758 9.64693 21.4359 8.97852 20.0001 8.76534V2.94678H32.5538C33.3153 2.9469 34.0456 3.24929 34.5841 3.7876ZM18.0001 8.76533V2.94678H5.44641C4.68472 2.94686 3.95376 3.249 3.41516 3.7876C2.87656 4.3262 2.57442 5.05716 2.57434 5.81885V8.69152H7.38293C7.93521 8.69154 8.38293 9.13925 8.38293 9.69152V21.3087C8.38291 21.861 7.93519 22.3087 7.38293 22.3087H2.57434V25.1812C2.57437 25.9429 2.87657 26.6738 3.41516 27.2124C3.95376 27.751 4.68472 28.0531 5.44641 28.0532H18.0001V22.2349C16.5643 22.0217 15.2244 21.3533 14.1857 20.3146C12.9088 19.0377 12.1915 17.3059 12.1915 15.5001C12.1915 13.6944 12.9088 11.9625 14.1857 10.6857C15.2244 9.64693 16.5643 8.9785 18.0001 8.76533ZM18.0001 20.2036C17.0977 20.0118 16.262 19.5628 15.5997 18.9005C14.698 17.9987 14.1915 16.7754 14.1915 15.5001C14.1915 14.2248 14.698 13.0015 15.5997 12.0997C16.262 11.4374 17.0977 10.9884 18.0001 10.7966V20.2036ZM20.0001 20.2036V10.7966C20.9025 10.9884 21.7382 11.4374 22.4005 12.0997C23.3023 13.0015 23.8087 14.2248 23.8087 15.5001C23.8087 16.7754 23.3023 17.9987 22.4005 18.9005C21.7382 19.5628 20.9025 20.0118 20.0001 20.2036ZM0.574341 21.3087V9.69152V5.81885C0.574422 4.52672 1.08742 3.28721 2.0011 2.37354C2.91477 1.45986 4.15429 0.946859 5.44641 0.946777H32.5538C33.8459 0.946901 35.0855 1.4599 35.9991 2.37354C36.9128 3.2872 37.4258 4.52676 37.4259 5.81885V9.69152V21.3087V25.1812C37.4259 26.4733 36.9128 27.7128 35.9991 28.6265C35.0855 29.5401 33.8459 30.0531 32.5538 30.0532H5.44641C4.15429 30.0531 2.91477 29.5401 2.0011 28.6265C1.08744 27.7127 0.574368 26.4733 0.574341 25.1812V21.3087ZM2.57434 20.3087H6.38293V10.6915H2.57434V20.3087ZM35.4259 20.3087V10.6915H31.6173V20.3087H35.4259Z" fill="#211A2C"/>
</svg>
