<?xml version="1.0" encoding="UTF-8"?>
<svg version="1.1" xmlns="http://www.w3.org/2000/svg" width="512" height="512">
<path d="M0 0 C20.68393552 16.31703636 33.81335911 36.58418397 38.703125 62.71484375 C41.70806857 91.64121976 35.72805946 117.36656446 17.58984375 140.3125 C13.8613095 144.88712472 9.57450145 148.6310436 5.08984375 152.4375 C5.61715088 152.66300537 6.14445801 152.88851074 6.68774414 153.12084961 C24.41137445 160.75460856 44.72688727 169.86525629 57.95002747 184.49565125 C62.8142435 187.50397116 67.51541622 186.97508119 73.12524414 186.91992188 C74.34540222 186.92383438 75.5655603 186.92774689 76.82269287 186.93177795 C79.47274931 186.93775664 82.1216721 186.93657811 84.77159309 186.9233551 C88.97184015 186.90295841 93.17168184 186.91302381 97.37193298 186.9276123 C107.05487254 186.95661825 116.73769245 186.94595431 126.4206543 186.93491364 C135.27950216 186.92521255 144.13813626 186.92412153 152.99694818 186.95479441 C157.16105951 186.96807732 161.32455576 186.962337 165.48862946 186.94142914 C168.70867804 186.93022752 171.92864075 186.94485565 175.14868164 186.95507812 C176.2852269 186.94376358 177.42177216 186.93244904 178.59275818 186.92079163 C192.23637775 187.02372843 204.49417116 191.86732613 214.40234375 201.3125 C227.37869891 215.22690493 229.99227662 236.15462822 234.44848633 254.0637207 C235.08450112 256.60501246 235.72936886 259.14410492 236.38305664 261.6809082 C242.28033082 284.57107968 245.90437902 303.34790091 233.8203125 324.96875 C232.00420821 327.5596708 230.0855038 329.24572156 227.65234375 331.25 C225.16776304 333.61033595 224.1440587 334.75021378 223.87060547 338.21679688 C223.98162598 339.28994141 224.09264648 340.36308594 224.20703125 341.46875 C224.33053955 342.71309814 224.45404785 343.95744629 224.58129883 345.23950195 C224.74691716 346.63930117 224.91661978 348.03862161 225.08984375 349.4375 C225.22608658 350.55105362 225.22608658 350.55105362 225.36508179 351.68710327 C226.19424119 358.359214 227.08138163 365.02416923 228.00854492 371.68334961 C229.30315701 381.03770585 230.30891302 390.26500659 230.3359375 399.71875 C230.34096031 400.86213081 230.34096031 400.86213081 230.34608459 402.02861023 C230.16152752 418.93120649 222.50128837 433.88244901 210.90625 445.90234375 C196.14025946 459.19378322 179.32629106 463.57961609 159.76733398 463.59863281 C158.54034286 463.60359772 157.31335175 463.60856262 156.04917908 463.61367798 C152.69750489 463.62574095 149.34589272 463.6332332 145.99420428 463.63768864 C143.89331535 463.64063218 141.79243172 463.6447394 139.69154549 463.64919281 C133.0984994 463.6628512 126.50546562 463.67252492 119.91240638 463.6763947 C112.33907999 463.68086599 104.76593492 463.6983775 97.19266361 463.7273953 C91.31464163 463.74912407 85.43667024 463.75910497 79.55860859 463.76043582 C76.05939647 463.76147624 72.56035515 463.76721863 69.06118584 463.78525543 C65.14677164 463.80504148 61.23257785 463.80040291 57.31811523 463.79394531 C56.18255188 463.8031601 55.04698853 463.81237488 53.87701416 463.8218689 C37.41508603 463.73746088 23.07576528 459.53072427 10.08984375 449.4375 C9.32671875 448.86386719 8.56359375 448.29023438 7.77734375 447.69921875 C-4.33241733 437.88106176 -11.76949207 422.73621915 -13.91015625 407.4375 C-14.6983298 393.18501075 -12.87311003 379.34089022 -10.91015625 365.25 C-10.47822828 362.09098321 -10.04976398 358.93156008 -9.6262207 355.77140808 C-9.36456724 353.82512303 -9.09779107 351.8795171 -8.82495117 349.93476868 C-7.17578028 341.42829639 -7.17578028 341.42829639 -9.23046875 333.57421875 C-9.82601562 333.09597656 -10.4215625 332.61773437 -11.03515625 332.125 C-19.88624652 324.11431628 -24.86668969 312.08326747 -26.28027344 300.37084961 C-27.00180456 285.19178812 -22.52325733 270.73719444 -18.72631836 256.18511963 C-17.9694796 253.26407774 -17.23300098 250.33807453 -16.49710464 247.41169834 C-15.77909843 244.56086875 -15.05322674 241.71209215 -14.32457733 238.86396599 C-13.98048611 237.51888658 -13.63765784 236.17348335 -13.29621124 234.82773018 C-9.44061624 219.70353831 -5.17723293 207.41815504 7.0390625 197.1640625 C8.82325918 195.66193882 10.47053803 194.1133529 12.08984375 192.4375 C10.94515625 192.0971875 10.94515625 192.0971875 9.77734375 191.75 C6.768876 190.67918944 4.02837456 189.49004149 1.15234375 188.125 C-27.9214509 174.85642258 -63.05057633 171.56527965 -93.91015625 180.4375 C-94.57031738 180.61941895 -95.23047852 180.80133789 -95.91064453 180.98876953 C-132.16209662 191.19389529 -161.81578703 216.72746633 -180.47265625 249 C-187.3655833 261.34708284 -192.44152365 274.39040566 -195.78515625 288.125 C-195.97625977 288.90641357 -196.16736328 289.68782715 -196.36425781 290.49291992 C-199.74199831 305.51957398 -200.22410455 320.62943512 -200.2109375 335.9609375 C-200.21483773 337.88327118 -200.21917505 339.80560402 -200.22392273 341.72793579 C-200.23131741 345.72311218 -200.23114087 349.71820005 -200.22583008 353.71337891 C-200.22000809 358.8069046 -200.23706499 363.90006989 -200.26017475 368.993536 C-200.27496314 372.95030801 -200.27577747 376.90699385 -200.27266502 380.8637886 C-200.27317447 382.74147894 -200.27834054 384.61917457 -200.28847694 386.49683762 C-200.49426202 405.25113943 -200.49426202 405.25113943 -191.9921875 421.4921875 C-186.79933614 426.34404487 -180.29932726 429.134631 -173.203125 429.57421875 C-164.66031826 429.06485208 -157.55293401 425.42239675 -151.72265625 419.25 C-144.99959822 410.68312177 -145.5014255 401.07744742 -145.56059647 390.72958183 C-145.57445514 388.07582861 -145.56782788 385.42281309 -145.55575562 382.76905823 C-145.52495596 375.23050867 -145.52967477 367.69213772 -145.54980469 360.15356445 C-145.560751 355.52643548 -145.54747707 350.89986524 -145.51990891 346.2728138 C-145.51448974 344.51825365 -145.51847735 342.76363686 -145.53230667 341.00912285 C-145.66479558 324.01154409 -145.66479558 324.01154409 -139.91015625 317.4375 C-136.28901817 314.50112842 -133.52182992 314.02720658 -128.91015625 314.0625 C-127.39421875 314.05089844 -127.39421875 314.05089844 -125.84765625 314.0390625 C-121.20519419 314.66875815 -118.06045158 316.82154738 -115.16015625 320.4375 C-111.74868467 324.98612878 -111.75301465 328.67624649 -111.7331543 334.14331055 C-111.7265831 334.9275943 -111.7200119 335.71187805 -111.71324158 336.51992798 C-111.69350311 339.12135929 -111.68183651 341.72273247 -111.671875 344.32421875 C-111.66779947 345.2171998 -111.66372395 346.11018085 -111.65952492 347.03022194 C-111.63864859 351.7689249 -111.62436115 356.50759888 -111.61499023 361.24633789 C-111.60400277 366.10219117 -111.5696975 370.9575764 -111.52981853 375.8132658 C-111.50343257 379.57724246 -111.49527847 383.34111214 -111.49170876 387.10517311 C-111.48688874 388.8922315 -111.4754088 390.67928663 -111.45667076 392.46625328 C-111.33373423 404.98168401 -111.64976177 418.18998739 -117.91015625 429.4375 C-116.5240641 429.43963753 -116.5240641 429.43963753 -115.10997009 429.44181824 C-106.38522544 429.45967601 -97.66098629 429.50137186 -88.93648434 429.56959057 C-84.4514852 429.60382574 -79.96682543 429.62896511 -75.48168945 429.63305664 C-71.15010742 429.6373471 -66.81929048 429.66587108 -62.48794746 429.71093178 C-60.83866399 429.72388302 -59.18928885 429.72822287 -57.53996086 429.72365379 C-42.99407686 429.69275379 -42.99407686 429.69275379 -38.46313477 432.8137207 C-34.30303756 437.0891883 -32.75960858 440.4566081 -32.47265625 446.375 C-32.68858779 452.61823795 -34.60339977 456.27738542 -39.21995544 460.60046387 C-44.28934991 463.80777827 -50.55425411 462.9917049 -56.32836914 462.95507812 C-57.69731387 462.96050336 -59.06625276 462.96762828 -60.43518066 462.97631836 C-64.14440384 462.99451933 -67.85318079 462.98749463 -71.56241155 462.97480202 C-75.45742662 462.96464313 -79.35240462 462.97407702 -83.24742126 462.98034668 C-89.79514378 462.98762077 -96.34268578 462.97804808 -102.89038086 462.95898438 C-110.43165783 462.93727961 -117.97250109 462.94422106 -125.5137673 462.96629 C-132.00834265 462.98452721 -138.50278843 462.98696005 -144.99738115 462.97653532 C-148.86713682 462.97033761 -152.73668978 462.96935964 -156.60643196 462.98268127 C-160.25346177 462.99435869 -163.89994184 462.98600118 -167.54691315 462.96310425 C-169.50170159 462.95541062 -171.45653729 462.96707548 -173.41130066 462.97961426 C-190.11678702 462.822014 -204.26984745 456.955339 -216.14453125 445.328125 C-232.33166146 428.78957813 -234.3889365 407.80945912 -234.30859375 385.859375 C-234.31062217 383.87900689 -234.31353993 381.89863952 -234.31729126 379.91827393 C-234.32169092 375.77975307 -234.31536842 371.64142763 -234.30126953 367.50292969 C-234.2843118 362.27873848 -234.29423274 357.05501005 -234.31158543 351.83083534 C-234.48136234 291.74413072 -224.08629865 239.4969081 -181.91015625 194.4375 C-181.02714844 193.48875 -180.14414063 192.54 -179.234375 191.5625 C-162.73478656 174.2241422 -141.85764917 161.72141166 -119.91015625 152.4375 C-120.74417969 151.66148437 -121.57820313 150.88546875 -122.4375 150.0859375 C-141.4179443 132.03330031 -153.01932656 108.68528134 -154.03125 82.27734375 C-154.49750667 57.51088649 -146.91369757 32.86574605 -129.91015625 14.4375 C-129.08902344 13.53644531 -128.26789063 12.63539062 -127.421875 11.70703125 C-94.40727942 -22.93201621 -38.75499314 -28.35964887 0 0 Z M24.13354492 226.74780273 C20.86460779 231.86341007 19.84616534 238.01064489 18.41796875 243.83203125 C18.08810268 245.14729094 17.75750302 246.46236684 17.4262085 247.77726746 C16.73634499 250.52652613 16.05485695 253.27768643 15.37939453 256.03051758 C14.51821646 259.53767823 13.63719823 263.03948196 12.74986649 266.54010487 C12.06429766 269.25356804 11.38905268 271.96952087 10.71681976 274.68631554 C10.24148269 276.60018538 9.75795239 278.5120144 9.27423096 280.42378235 C6.13711069 293.24968149 6.13711069 293.24968149 9.7578125 305.58203125 C13.3428808 310.57589472 17.95599035 314.35505528 24.08984375 315.4375 C31.27020155 315.63123647 36.53262221 314.00419826 42.08984375 309.4375 C47.19866132 304.19423986 48.25960622 298.33322184 49.14306641 291.2421875 C49.23114059 290.54869202 49.31921478 289.85519653 49.40995789 289.14068604 C49.69731126 286.86533441 49.97581255 284.58900038 50.25390625 282.3125 C50.45239839 280.72113751 50.65132908 279.12982967 50.85067749 277.53857422 C51.26628359 274.21042554 51.67770218 270.88179503 52.0859375 267.55273438 C52.6082251 263.29506785 53.13920113 259.0385418 53.67310524 254.78231812 C54.0843329 251.49864871 54.49181136 248.21452279 54.89808273 244.93023682 C55.09249723 243.36090353 55.28786209 241.79168766 55.48421097 240.22259521 C55.75827944 238.0264345 56.02750284 235.82973222 56.29541016 233.6328125 C56.44926178 232.38516113 56.6031134 231.13750977 56.7616272 229.85205078 C57.06589724 226.68662388 57.15170186 223.61473349 57.08984375 220.4375 C53.23593558 220.32056499 49.38248863 220.2500038 45.52734375 220.1875 C44.44130859 220.15398437 43.35527344 220.12046875 42.23632812 220.0859375 C34.40949232 219.9907784 29.42636037 220.49722085 24.13354492 226.74780273 Z M90.08984375 221.4375 C89.75926053 223.38381838 89.48867541 225.34035743 89.24194336 227.29907227 C89.08185287 228.55450333 88.92176239 229.80993439 88.75682068 231.10340881 C88.5850391 232.48687853 88.41350087 233.87037848 88.2421875 235.25390625 C88.06448933 236.6682373 87.88655332 238.08253848 87.70838928 239.49681091 C87.33488999 242.46993813 86.96458876 245.44344255 86.59643555 248.41723633 C86.12637079 252.21182877 85.64806832 256.00532763 85.167243 259.79856968 C84.79737602 262.7245283 84.43219862 265.65105819 84.06836128 268.57777214 C83.89402543 269.97526495 83.71821189 271.37257429 83.54084587 272.76968575 C81.93298612 285.46907184 80.84693315 295.01139368 87.83984375 306.25 C94.91823085 313.13176524 101.72054715 314.8797678 111.44140625 314.76953125 C117.95040675 314.17717039 122.56647335 311.95147238 127.1875 307.34765625 C133.15766975 300.1760971 134.50835515 293.64967093 134.08984375 284.4375 C133.61493845 279.46410893 132.98080465 274.51277394 132.33984375 269.55859375 C132.15999504 268.13662255 131.98064133 266.71458867 131.80175781 265.29249573 C131.33320884 261.57820896 130.85800916 257.86480348 130.38134766 254.15155029 C129.89468818 250.35089871 129.41442245 246.54943972 128.93359375 242.74804688 C127.99187943 235.31040004 127.04312692 227.87367389 126.08984375 220.4375 C121.12362026 220.41284902 116.15743209 220.39466351 111.19116211 220.38256836 C109.50040059 220.3775281 107.80964346 220.37069595 106.11889648 220.36206055 C103.69383668 220.34998143 101.26883431 220.34426877 98.84375 220.33984375 C98.08332901 220.33468246 97.32290802 220.32952118 96.53944397 220.32420349 C93.02248399 219.99741542 93.02248399 219.99741542 90.08984375 221.4375 Z M159.08984375 220.4375 C159.72925822 229.7799091 160.67346879 239.05959255 161.796875 248.35546875 C161.87922583 249.0371493 161.96157665 249.71882984 162.04642296 250.42116737 C162.48177852 254.0187844 162.92114423 257.615887 163.36352539 261.21264648 C163.72509984 264.15871496 164.07858816 267.10558332 164.42504883 270.0534668 C164.84841143 273.65563071 165.2853506 277.2559089 165.73181725 280.85527992 C165.97758508 282.86251412 166.21027079 284.87133654 166.44258118 286.88017273 C167.96526548 299.76350794 167.96526548 299.76350794 174.83984375 310.375 C181.23103934 314.43095105 186.14144327 316.10532105 193.765625 315.0078125 C199.89923559 313.50275847 203.50561825 309.31602915 207.08984375 304.4375 C212.08194478 295.87961252 208.23587497 284.60706074 205.94921875 275.765625 C205.62179289 274.47167469 205.29508521 273.17754246 204.96905518 271.88323975 C204.2873746 269.18851505 203.59725796 266.49613824 202.90087891 263.80517578 C202.01282936 260.37080612 201.14613612 256.9314638 200.28564072 253.49010086 C199.45569848 250.18318242 198.60794799 246.88091363 197.76171875 243.578125 C197.4542572 242.34991028 197.14679565 241.12169556 196.83001709 239.85626221 C194.87299725 232.36440398 193.33115364 227.01010339 187.1171875 222.078125 C181.96516452 219.42025894 176.29591517 220.01333637 170.65234375 220.1875 C168.98268555 220.21457031 168.98268555 220.21457031 167.27929688 220.2421875 C164.54853013 220.28906762 161.81980204 220.3581988 159.08984375 220.4375 Z M93.76953125 372.9453125 C90.74772666 377.48858513 90.12527529 382.09827257 91.08984375 387.4375 C93.30451225 391.78481225 95.8970577 394.92182837 100.08984375 397.4375 C104.85680227 398.85297619 108.83006062 398.91376057 113.40234375 396.875 C117.70219803 394.36532409 120.22722692 391.37878379 121.65234375 386.51953125 C122.59816723 381.4258777 121.74540992 377.97766152 119.08984375 373.4375 C115.44313429 369.6841049 112.17984179 367.29758599 106.90234375 367.125 C101.34839597 367.21429176 97.46120617 368.72937605 93.76953125 372.9453125 Z " fill="#000000" transform="translate(253.91015625,33.5625)"/>
</svg>
