<svg width="25" height="24" viewBox="0 0 25 24" fill="none" xmlns="http://www.w3.org/2000/svg">
<path d="M12.9362 4C13.2611 4 13.5251 4.25649 13.5251 4.57311V6.97827C13.5251 7.36348 13.854 7.68291 14.2505 7.68291C14.6567 7.68291 14.9758 7.36348 14.9758 6.97827V4.57311C14.9758 4.25649 15.2398 4 15.5658 4H18.7186C20.8075 4 22.5 5.64416 22.5 7.67352V10.0411C22.5 10.229 22.4226 10.4075 22.2872 10.539C22.1518 10.6706 21.9681 10.7457 21.7747 10.7457C21.059 10.7457 20.4787 11.3095 20.4787 11.9953C20.4787 12.6858 21.0522 13.2467 21.7611 13.2543C22.1605 13.258 22.5 13.5286 22.5 13.9166V16.3265C22.5 18.3549 20.8075 20 18.7186 20H15.5658C15.2398 20 14.9758 19.7435 14.9758 19.4269V17.3975C14.9758 17.0029 14.6567 16.6929 14.2505 16.6929C13.854 16.6929 13.5251 17.0029 13.5251 17.3975V19.4269C13.5251 19.7435 13.2611 20 12.9362 20H6.28143C4.20213 20 2.5 18.3558 2.5 16.3265V13.9166C2.5 13.5286 2.83946 13.258 3.23888 13.2543C3.94874 13.2467 4.52128 12.6858 4.52128 11.9953C4.52128 11.3282 3.96035 10.8209 3.22534 10.8209C3.03191 10.8209 2.84816 10.7457 2.71277 10.6142C2.57737 10.4827 2.5 10.3042 2.5 10.1163V7.68291C2.5 5.65731 4.206 4 6.2911 4H12.9362ZM14.2505 9.70288C13.854 9.70288 13.5251 10.0223 13.5251 10.4075V14.1656C13.5251 14.5508 13.854 14.8702 14.2505 14.8702C14.6567 14.8702 14.9758 14.5508 14.9758 14.1656V10.4075C14.9758 10.0223 14.6567 9.70288 14.2505 9.70288Z" fill="#FDC300"/>
</svg>
